<?xml version="1.0" encoding="UTF-8" standalone="no"?>
<svg
   xmlns:dc="http://purl.org/dc/elements/1.1/"
   xmlns:cc="http://creativecommons.org/ns#"
   xmlns:rdf="http://www.w3.org/1999/02/22-rdf-syntax-ns#"
   xmlns:svg="http://www.w3.org/2000/svg"
   xmlns="http://www.w3.org/2000/svg"
   id="svg8"
   version="1.1"
   viewBox="0 0 31.939369 27.713621"
   height="27.713621mm"
   width="31.939369mm">
  <defs
     id="defs2">
    <clipPath
       clipPathUnits="userSpaceOnUse"
       id="clipPath77">
      <path
         d="M 0,150.236 H 595.275 V 841.89 H 0 Z"
         id="path75" />
    </clipPath>
    <clipPath
       clipPathUnits="userSpaceOnUse"
       id="clipPath107">
      <path
         d="M 469.134,710.977 H 595.275 V 828.803 H 469.134 Z"
         id="path105" />
    </clipPath>
  </defs>
  <metadata
     id="metadata5">
    <rdf:RDF>
      <cc:Work
         rdf:about="">
        <dc:format>image/svg+xml</dc:format>
        <dc:type
           rdf:resource="http://purl.org/dc/dcmitype/StillImage" />
        <dc:title></dc:title>
      </cc:Work>
    </rdf:RDF>
  </metadata>
  <g
     transform="translate(-242.89296,-7.7714452)"
     id="layer1">
    <g
       transform="matrix(0.35277777,0,0,-0.35277777,242.89296,26.325829)"
       id="g97">
      <path
         id="path99"
         style="fill:#257d9c;fill-opacity:1;fill-rule:nonzero;stroke:none"
         d="M 0,0 H 1.66 L 5.666,-8.771 H 5.697 V 0 H 6.975 V -10.63 H 5.316 L 1.311,-1.919 H 1.28 V -10.63 H 0 Z" />
    </g>
    <g
       transform="matrix(0.35277777,0,0,-0.35277777,71.892966,295.1548)"
       id="g101">
      <g
         clip-path="url(#clipPath107)"
         id="g103">
        <g
           transform="translate(494.4116,758.6392)"
           id="g109">
          <path
             id="path111"
             style="fill:#257d9c;fill-opacity:1;fill-rule:nonzero;stroke:none"
             d="m 0,0 c 0.638,0.411 1.43,0.64 2.191,0.64 1.143,0 1.828,-0.489 2.073,-0.73 0.336,-0.337 0.67,-0.809 0.67,-1.904 v -4.051 c 0,-0.456 0.031,-0.913 0.06,-1.189 H 3.837 L 3.761,-6.182 H 3.731 C 3.38,-6.776 2.74,-7.339 1.553,-7.339 c -1.281,0 -2.24,0.746 -2.24,2.238 0,1.508 0.993,2.619 3.654,2.619 h 0.748 v 0.35 c 0,0.579 -0.045,0.914 -0.289,1.249 -0.259,0.349 -0.763,0.489 -1.295,0.489 -0.792,0 -1.552,-0.321 -1.994,-0.808 z m 3.715,-3.424 c -0.228,0.029 -0.548,0.029 -0.898,0.029 -1.508,0 -2.224,-0.716 -2.224,-1.616 0,-0.822 0.427,-1.354 1.31,-1.354 1.112,0 1.812,0.898 1.812,1.965 z" />
        </g>
        <g
           transform="translate(504.5999,751.499)"
           id="g113">
          <path
             id="path115"
             style="fill:#257d9c;fill-opacity:1;fill-rule:nonzero;stroke:none"
             d="m 0,0 c -0.304,-0.109 -0.731,-0.199 -1.081,-0.199 -1.172,0 -1.797,0.472 -1.797,1.844 v 4.994 h -1.234 v 1.033 h 1.234 v 1.586 l 1.279,0.38 V 7.672 H 0 V 6.639 H -1.599 V 2.055 c 0,-0.884 0.229,-1.218 0.807,-1.218 0.32,0 0.549,0.092 0.792,0.197 z" />
        </g>
        <g
           transform="translate(511.7565,753.0812)"
           id="g117">
          <path
             id="path119"
             style="fill:#257d9c;fill-opacity:1;fill-rule:nonzero;stroke:none"
             d="m 0,0 c 0,-0.563 0.045,-1.126 0.062,-1.676 h -1.234 l -0.046,1.158 h -0.031 c -0.41,-0.882 -1.067,-1.263 -1.963,-1.263 -1.358,0 -2.271,0.775 -2.271,2.481 v 5.39 h 1.28 V 1.081 c 0,-1.233 0.457,-1.767 1.278,-1.767 1.006,0 1.647,0.702 1.647,2.101 V 6.09 H 0 Z" />
        </g>
        <g
           transform="translate(513.9198,757.4976)"
           id="g121">
          <path
             id="path123"
             style="fill:#257d9c;fill-opacity:1;fill-rule:nonzero;stroke:none"
             d="M 0,0 C 0,0.563 -0.046,1.127 -0.062,1.674 H 1.171 L 1.217,0.456 H 1.248 C 1.659,1.4 2.315,1.781 3.456,1.781 V 0.518 c -0.151,0.03 -0.32,0.045 -0.487,0.045 -0.991,0 -1.69,-0.852 -1.69,-2.543 V -6.092 H 0 Z" />
        </g>
        <g
           transform="translate(518.7316,762.8259)"
           id="g125">
          <path
             id="path127"
             style="fill:#257d9c;fill-opacity:1;fill-rule:nonzero;stroke:none"
             d="M 0,0 H 1.279 V -4.721 H 1.31 c 0.334,0.656 1.006,1.174 1.902,1.174 1.357,0 2.271,-0.776 2.271,-2.481 v -5.393 H 4.202 v 5.012 c 0,1.233 -0.456,1.766 -1.28,1.766 -1.004,0 -1.643,-0.699 -1.643,-2.102 v -4.676 H 0 Z" />
        </g>
        <path
           id="path129"
           style="fill:#257d9c;fill-opacity:1;fill-rule:nonzero;stroke:none"
           d="m 526.499,759.171 h 1.277 v -7.766 h -1.277 z" />
        <g
           transform="translate(529.7246,752.9142)"
           id="g131">
          <path
             id="path133"
             style="fill:#257d9c;fill-opacity:1;fill-rule:nonzero;stroke:none"
             d="m 0,0 c 0.58,-0.351 1.19,-0.578 1.83,-0.578 0.975,0 1.477,0.501 1.477,1.096 0,0.533 -0.273,0.897 -0.989,1.218 L 1.465,2.117 C 0.354,2.619 -0.06,3.121 -0.06,4.112 c 0,1.28 0.99,2.253 2.498,2.253 0.641,0 1.203,-0.108 1.646,-0.274 L 4.022,4.995 C 3.628,5.177 3.079,5.331 2.499,5.331 1.662,5.331 1.219,4.874 1.219,4.266 1.219,3.639 1.676,3.289 2.531,2.953 L 2.986,2.772 C 3.932,2.391 4.524,1.75 4.524,0.793 c 0,-1.34 -0.715,-2.407 -2.497,-2.407 -0.808,0 -1.539,0.166 -2.101,0.457 z" />
        </g>
        <g
           transform="translate(539.428,751.499)"
           id="g135">
          <path
             id="path137"
             style="fill:#257d9c;fill-opacity:1;fill-rule:nonzero;stroke:none"
             d="m 0,0 c -0.304,-0.109 -0.731,-0.199 -1.081,-0.199 -1.172,0 -1.797,0.472 -1.797,1.844 v 4.994 h -1.234 v 1.033 h 1.234 v 1.586 l 1.277,0.38 V 7.672 H 0 V 6.639 H -1.601 V 2.055 c 0,-0.884 0.23,-1.218 0.808,-1.218 0.32,0 0.549,0.092 0.793,0.197 z" />
        </g>
        <g
           transform="translate(543.5542,759.2788)"
           id="g139">
          <path
             id="path141"
             style="fill:#257d9c;fill-opacity:1;fill-rule:nonzero;stroke:none"
             d="m 0,0 c 2.057,0 3.124,-1.553 3.124,-3.989 0,-2.437 -1.067,-3.99 -3.124,-3.99 -2.055,0 -3.123,1.553 -3.123,3.99 C -3.123,-1.553 -2.055,0 0,0 m 0,-6.943 c 1.219,0 1.781,1.004 1.781,2.954 0,1.949 -0.562,2.956 -1.781,2.956 -1.218,0 -1.781,-1.007 -1.781,-2.956 0,-1.95 0.563,-2.954 1.781,-2.954" />
        </g>
        <g
           transform="translate(548.4589,757.4976)"
           id="g143">
          <path
             id="path145"
             style="fill:#257d9c;fill-opacity:1;fill-rule:nonzero;stroke:none"
             d="M 0,0 C 0,0.563 -0.045,1.127 -0.062,1.674 H 1.172 L 1.217,0.456 h 0.03 C 1.659,1.4 2.316,1.781 3.457,1.781 V 0.518 c -0.152,0.03 -0.321,0.045 -0.488,0.045 -0.99,0 -1.69,-0.852 -1.69,-2.543 V -6.092 H 0 Z" />
        </g>
        <path
           id="path147"
           style="fill:#257d9c;fill-opacity:1;fill-rule:nonzero;stroke:none"
           d="m 553.394,759.171 h 1.277 v -7.766 h -1.277 z" />
        <g
           transform="translate(556.6196,752.9142)"
           id="g149">
          <path
             id="path151"
             style="fill:#257d9c;fill-opacity:1;fill-rule:nonzero;stroke:none"
             d="m 0,0 c 0.58,-0.351 1.189,-0.578 1.827,-0.578 0.976,0 1.48,0.501 1.48,1.096 0,0.533 -0.275,0.897 -0.991,1.218 L 1.463,2.117 c -1.11,0.502 -1.522,1.004 -1.522,1.995 0,1.28 0.988,2.253 2.498,2.253 0.637,0 1.2,-0.108 1.643,-0.274 L 4.021,4.995 C 3.625,5.177 3.076,5.331 2.498,5.331 1.663,5.331 1.219,4.874 1.219,4.266 1.219,3.639 1.677,3.289 2.529,2.953 L 2.987,2.772 C 3.931,2.391 4.524,1.75 4.524,0.793 c 0,-1.34 -0.718,-2.407 -2.498,-2.407 -0.807,0 -1.539,0.166 -2.1,0.457 z" />
        </g>
        <g
           transform="translate(566.8381,759.1714)"
           id="g153">
          <path
             id="path155"
             style="fill:#257d9c;fill-opacity:1;fill-rule:nonzero;stroke:none"
             d="M 0,0 H 1.494 L -1.554,-3.47 1.769,-7.766 H 0.185 l -2.817,3.915 h -0.03 v -3.915 h -1.28 v 11.42 h 1.28 v -6.775 z" />
        </g>
        <g
           transform="translate(570.2642,758.6392)"
           id="g157">
          <path
             id="path159"
             style="fill:#257d9c;fill-opacity:1;fill-rule:nonzero;stroke:none"
             d="m 0,0 c 0.641,0.411 1.433,0.64 2.195,0.64 1.143,0 1.828,-0.489 2.07,-0.73 0.337,-0.337 0.671,-0.809 0.671,-1.904 v -4.051 c 0,-0.456 0.03,-0.913 0.061,-1.189 H 3.841 L 3.765,-6.182 H 3.734 c -0.35,-0.594 -0.992,-1.157 -2.179,-1.157 -1.279,0 -2.239,0.746 -2.239,2.238 0,1.508 0.992,2.619 3.655,2.619 h 0.745 v 0.35 c 0,0.579 -0.045,0.914 -0.287,1.249 -0.26,0.349 -0.763,0.489 -1.295,0.489 -0.791,0 -1.552,-0.321 -1.996,-0.808 z m 3.716,-3.424 c -0.228,0.029 -0.547,0.029 -0.898,0.029 -1.507,0 -2.221,-0.716 -2.221,-1.616 0,-0.822 0.426,-1.354 1.309,-1.354 1.111,0 1.81,0.898 1.81,1.965 z" />
        </g>
        <g
           transform="translate(484.8289,742.2708)"
           id="g161">
          <path
             id="path163"
             style="fill:#257d9c;fill-opacity:1;fill-rule:nonzero;stroke:none"
             d="M 0,0 C 0,0.563 -0.046,1.127 -0.062,1.676 H 1.173 L 1.219,0.458 H 1.25 C 1.66,1.402 2.316,1.784 3.458,1.784 V 0.519 C 3.305,0.549 3.138,0.563 2.971,0.563 1.982,0.563 1.28,-0.29 1.28,-1.981 V -6.092 H 0 Z" />
        </g>
        <path
           id="path165"
           style="fill:#257d9c;fill-opacity:1;fill-rule:nonzero;stroke:none"
           d="m 489.764,743.947 h 1.279 v -7.768 h -1.279 z" />
        <g
           transform="translate(497.2712,743.9468)"
           id="g167">
          <path
             id="path169"
             style="fill:#257d9c;fill-opacity:1;fill-rule:nonzero;stroke:none"
             d="M 0,0 H 1.492 L -1.554,-3.473 1.767,-7.768 H 0.184 l -2.817,3.914 H -2.665 V -7.768 H -3.944 V 3.655 h 1.279 v -6.777 z" />
        </g>
        <g
           transform="translate(500.0565,737.6865)"
           id="g171">
          <path
             id="path173"
             style="fill:#257d9c;fill-opacity:1;fill-rule:nonzero;stroke:none"
             d="m 0,0 c 0.58,-0.351 1.191,-0.577 1.829,-0.577 0.974,0 1.478,0.501 1.478,1.095 0,0.535 -0.274,0.899 -0.99,1.219 L 1.464,2.116 C 0.352,2.618 -0.06,3.122 -0.06,4.113 c 0,1.279 0.991,2.256 2.5,2.256 0.637,0 1.203,-0.109 1.643,-0.277 L 4.022,4.996 C 3.626,5.177 3.077,5.33 2.499,5.33 1.661,5.33 1.22,4.874 1.22,4.265 1.22,3.642 1.676,3.289 2.528,2.955 L 2.987,2.772 c 0.944,-0.381 1.537,-1.019 1.537,-1.98 0,-1.34 -0.715,-2.406 -2.496,-2.406 -0.808,0 -1.54,0.167 -2.103,0.459 z" />
        </g>
        <g
           transform="translate(506.4926,742.2708)"
           id="g175">
          <path
             id="path177"
             style="fill:#257d9c;fill-opacity:1;fill-rule:nonzero;stroke:none"
             d="M 0,0 C 0,0.563 -0.046,1.127 -0.061,1.676 H 1.174 L 1.219,0.519 H 1.25 C 1.661,1.402 2.317,1.784 3.168,1.784 3.991,1.784 4.6,1.355 4.994,0.563 5.407,1.325 6,1.784 6.883,1.784 8.224,1.784 9.138,1.005 9.138,-0.7 V -6.092 H 7.86 v 5.33 c 0,0.991 -0.428,1.447 -1.19,1.447 -0.943,0 -1.462,-0.578 -1.462,-1.98 V -6.092 H 3.929 v 5.33 c 0,0.991 -0.426,1.447 -1.188,1.447 -0.942,0 -1.461,-0.578 -1.461,-1.98 V -6.092 H 0 Z" />
        </g>
        <g
           transform="translate(522.9526,737.8553)"
           id="g179">
          <path
             id="path181"
             style="fill:#257d9c;fill-opacity:1;fill-rule:nonzero;stroke:none"
             d="m 0,0 c 0,-0.563 0.046,-1.127 0.062,-1.677 h -1.233 l -0.047,1.157 h -0.03 c -0.411,-0.881 -1.067,-1.263 -1.965,-1.263 -1.355,0 -2.269,0.778 -2.269,2.481 v 5.393 h 1.279 V 1.079 c 0,-1.232 0.458,-1.766 1.28,-1.766 1.006,0 1.644,0.702 1.644,2.103 V 6.091 H 0 Z" />
        </g>
        <g
           transform="translate(524.781,737.6865)"
           id="g183">
          <path
             id="path185"
             style="fill:#257d9c;fill-opacity:1;fill-rule:nonzero;stroke:none"
             d="m 0,0 c 0.579,-0.351 1.188,-0.577 1.827,-0.577 0.975,0 1.476,0.501 1.476,1.095 0,0.535 -0.273,0.899 -0.988,1.219 L 1.463,2.116 c -1.112,0.502 -1.525,1.006 -1.525,1.997 0,1.279 0.993,2.256 2.499,2.256 0.639,0 1.203,-0.109 1.645,-0.277 L 4.02,4.996 C 3.624,5.177 3.076,5.33 2.497,5.33 1.659,5.33 1.218,4.874 1.218,4.265 1.218,3.642 1.676,3.289 2.527,2.955 L 2.985,2.772 C 3.93,2.391 4.521,1.753 4.521,0.792 c 0,-1.34 -0.713,-2.406 -2.496,-2.406 -0.807,0 -1.537,0.167 -2.1,0.459 z" />
        </g>
        <g
           transform="translate(532.0134,739.6827)"
           id="g187">
          <path
             id="path189"
             style="fill:#257d9c;fill-opacity:1;fill-rule:nonzero;stroke:none"
             d="m 0,0 c 0,-1.798 0.702,-2.636 2.117,-2.636 0.642,0 1.34,0.321 1.782,0.64 l 0.065,-1.156 c -0.611,-0.292 -1.402,-0.459 -2.18,-0.459 -2.057,0 -3.123,1.554 -3.123,3.993 0,2.435 1.066,3.99 3,3.99 1.751,0 2.727,-1.403 2.727,-3.687 V 0 Z M 3.11,0.975 C 3.11,2.588 2.607,3.396 1.585,3.396 0.764,3.396 0.034,2.787 0,0.975 Z" />
        </g>
        <g
           transform="translate(539.0812,739.6827)"
           id="g191">
          <path
             id="path193"
             style="fill:#257d9c;fill-opacity:1;fill-rule:nonzero;stroke:none"
             d="m 0,0 c 0,-1.798 0.701,-2.636 2.118,-2.636 0.638,0 1.338,0.321 1.781,0.64 l 0.062,-1.156 c -0.61,-0.292 -1.403,-0.459 -2.178,-0.459 -2.057,0 -3.124,1.554 -3.124,3.993 0,2.435 1.067,3.99 3.001,3.99 1.751,0 2.724,-1.403 2.724,-3.687 V 0 Z M 3.107,0.975 C 3.107,2.588 2.605,3.396 1.585,3.396 0.761,3.396 0.031,2.787 0,0.975 Z" />
        </g>
        <g
           transform="translate(548.6132,736.2723)"
           id="g195">
          <path
             id="path197"
             style="fill:#257d9c;fill-opacity:1;fill-rule:nonzero;stroke:none"
             d="m 0,0 c -0.305,-0.107 -0.731,-0.2 -1.08,-0.2 -1.172,0 -1.797,0.472 -1.797,1.846 V 6.638 H -4.11 v 1.036 h 1.233 v 1.582 l 1.279,0.382 V 7.674 H 0 V 6.638 H -1.598 V 2.053 c 0,-0.884 0.228,-1.216 0.807,-1.216 0.32,0 0.551,0.091 0.791,0.197 z" />
        </g>
        <g
           transform="translate(527.8515,761.5593)"
           id="g199">
          <path
             id="path201"
             style="fill:#257d9c;fill-opacity:1;fill-rule:nonzero;stroke:none"
             d="m 0,0 c 0,-0.39 -0.317,-0.705 -0.708,-0.705 -0.391,0 -0.705,0.315 -0.705,0.705 0,0.39 0.314,0.706 0.705,0.706 C -0.317,0.706 0,0.39 0,0" />
        </g>
        <g
           transform="translate(554.7308,761.5593)"
           id="g203">
          <path
             id="path205"
             style="fill:#257d9c;fill-opacity:1;fill-rule:nonzero;stroke:none"
             d="m 0,0 c 0,-0.39 -0.317,-0.705 -0.708,-0.705 -0.389,0 -0.703,0.315 -0.703,0.705 0,0.39 0.314,0.706 0.703,0.706 C -0.317,0.706 0,0.39 0,0" />
        </g>
        <g
           transform="translate(491.1085,746.3619)"
           id="g207">
          <path
             id="path209"
             style="fill:#257d9c;fill-opacity:1;fill-rule:nonzero;stroke:none"
             d="m 0,0 c 0,-0.389 -0.316,-0.706 -0.707,-0.706 -0.39,0 -0.706,0.317 -0.706,0.706 0,0.39 0.316,0.707 0.706,0.707 C -0.316,0.707 0,0.39 0,0" />
        </g>
        <g
           transform="translate(523.4116,814.63)"
           id="g211">
          <path
             id="path213"
             style="fill:#82ab28;fill-opacity:1;fill-rule:nonzero;stroke:none"
             d="M 0,0 V -10.511 H 10.506 C 10.506,-4.735 5.781,0 0,0" />
        </g>
        <g
           transform="translate(508.1928,793.6069)"
           id="g215">
          <path
             id="path217"
             style="fill:#82ab28;fill-opacity:1;fill-rule:nonzero;stroke:none"
             d="m 0,0 v -10.51 c 0,-5.783 -4.726,-10.511 -10.513,-10.511 V -10.51 C -10.513,-4.73 -5.783,0 0,0" />
        </g>
        <g
           transform="translate(521.0561,814.63)"
           id="g219">
          <path
             id="path221"
             style="fill:#257d9c;fill-opacity:1;fill-rule:nonzero;stroke:none"
             d="m 0,0 v -10.511 c 0,-5.78 -4.732,-10.512 -10.51,-10.512 v 10.512 C -10.51,-4.735 -5.785,0 0,0" />
        </g>
        <g
           transform="translate(497.6803,814.63)"
           id="g223">
          <path
             id="path225"
             style="fill:#82ab28;fill-opacity:1;fill-rule:nonzero;stroke:none"
             d="m 0,0 v -10.511 c 0,-5.78 4.73,-10.512 10.513,-10.512 v 10.512 C 10.513,-4.735 5.787,0 0,0" />
        </g>
        <g
           transform="translate(495.3276,814.63)"
           id="g227">
          <path
             id="path229"
             style="fill:#257d9c;fill-opacity:1;fill-rule:nonzero;stroke:none"
             d="m 0,0 v -10.511 c 0,-5.78 -4.734,-10.512 -10.513,-10.512 v 10.512 C -10.513,-4.735 -5.783,0 0,0" />
        </g>
        <g
           transform="translate(510.5466,793.6069)"
           id="g231">
          <path
             id="path233"
             style="fill:#257d9c;fill-opacity:1;fill-rule:nonzero;stroke:none"
             d="m 0,0 v -10.51 c 0,-5.783 4.725,-10.511 10.51,-10.511 V -10.51 C 10.51,-4.73 5.778,0 0,0" />
        </g>
        <g
           transform="translate(533.9178,793.6069)"
           id="g235">
          <path
             id="path237"
             style="fill:#82ab28;fill-opacity:1;fill-rule:nonzero;stroke:none"
             d="m 0,0 v -10.51 c 0,-5.783 -4.725,-10.511 -10.506,-10.511 V -10.51 C -10.506,-4.73 -5.777,0 0,0" />
        </g>
        <g
           transform="translate(536.2754,793.6069)"
           id="g239">
          <path
             id="path241"
             style="fill:#257d9c;fill-opacity:1;fill-rule:nonzero;stroke:none"
             d="m 0,0 v -10.51 c 0,-5.783 4.727,-10.511 10.509,-10.511 V -10.51 C 10.509,-4.73 5.781,0 0,0" />
        </g>
      </g>
    </g>
  </g>
</svg>
